<svg width="51" height="51" viewBox="0 0 51 51" fill="none" xmlns="http://www.w3.org/2000/svg">
<circle cx="25.2529" cy="25.1057" r="25" fill="url(#paint0_linear_1209_2607)"/>
<g filter="url(#filter0_d_1209_2607)">
<path fill-rule="evenodd" clip-rule="evenodd" d="M10.4756 16.1057C10.4756 15.5534 10.9233 15.1057 11.4756 15.1057H39.4756C40.0279 15.1057 40.4756 15.5534 40.4756 16.1057V34.1057C40.4756 34.658 40.0279 35.1057 39.4756 35.1057H11.4756C10.9233 35.1057 10.4756 34.658 10.4756 34.1057V16.1057Z" fill="white"/>
<g opacity="0.69508">
<path d="M30.7003 26.3327V22.8511C30.8129 22.8226 30.9216 22.7794 31.0227 22.7209C31.3158 22.5523 31.5256 22.2798 31.6131 21.9535C31.7008 21.627 31.6561 21.2859 31.487 20.9927C31.2616 20.6023 30.8412 20.3598 30.3901 20.3598C30.1693 20.3598 29.9509 20.4184 29.7586 20.5295C29.6577 20.5878 29.5689 20.6588 29.4907 20.7382L26.4573 19.0453C26.4964 18.9236 26.5182 18.7938 26.5182 18.6591C26.5182 17.9615 25.9508 17.3938 25.2534 17.3938C24.5561 17.3938 23.9887 17.9613 23.9887 18.6591C23.9887 18.7882 24.0083 18.9129 24.0447 19.0305L21.0468 20.7688C20.9621 20.6765 20.8621 20.5951 20.7479 20.5291C20.5555 20.4184 20.337 20.3598 20.1164 20.3598C19.665 20.3598 19.245 20.6023 19.0195 20.9927C18.8508 21.2852 18.8059 21.6261 18.8931 21.9524C18.9806 22.2789 19.19 22.5518 19.4826 22.7206C19.5959 22.7859 19.7188 22.831 19.8455 22.8587V26.3248C19.7186 26.3527 19.5958 26.3976 19.4821 26.4629C18.8787 26.8113 18.6711 27.5864 19.0195 28.1908C19.2448 28.5812 19.6646 28.8236 20.1153 28.8236C20.3365 28.8236 20.5551 28.7648 20.7474 28.6538C20.8369 28.6021 20.9155 28.538 20.9883 28.4684L24.0533 30.1277C24.0118 30.2527 23.9889 30.3859 23.9889 30.5246C23.9889 31.2228 24.556 31.7909 25.2536 31.7909C25.951 31.7909 26.5183 31.2228 26.5183 30.5246C26.5183 30.4062 26.5008 30.2919 26.4704 30.1833L29.4881 28.4425C29.718 28.6777 30.0378 28.8241 30.3915 28.8241C31.0892 28.8241 31.6569 28.2568 31.6569 27.5596C31.6576 27.2217 31.5261 26.9039 31.2872 26.6649C31.1224 26.5 30.9206 26.3877 30.7003 26.3328L30.7003 26.3327ZM30.0676 21.0654C30.1659 21.0088 30.2775 20.9788 30.39 20.9788C30.6209 20.9788 30.8359 21.1029 30.9513 21.3021C31.0375 21.4518 31.0603 21.6262 31.0156 21.7927C30.9708 21.9595 30.864 22.0985 30.7134 22.1849C30.6153 22.2419 30.504 22.2717 30.3914 22.2717C30.161 22.2717 29.9463 22.1476 29.831 21.9481C29.6532 21.6398 29.7594 21.2436 30.0676 21.0654H30.0676ZM25.2532 18.0126C25.6095 18.0126 25.8992 18.3027 25.8992 18.6591C25.8992 19.0154 25.6095 19.3051 25.2532 19.3051C24.897 19.3051 24.6072 19.0154 24.6072 18.6591C24.6072 18.3027 24.8971 18.0126 25.2532 18.0126ZM19.4907 21.7924C19.4461 21.6256 19.4691 21.4514 19.5552 21.302C19.6705 21.1027 19.8854 20.9786 20.1163 20.9786C20.2289 20.9786 20.3405 21.0087 20.4387 21.0651C20.7469 21.2432 20.8528 21.6393 20.6746 21.948C20.5595 22.1477 20.3448 22.2716 20.1146 22.2716C20.0021 22.2716 19.8905 22.2415 19.7919 22.1845C19.6423 22.0984 19.5353 21.9592 19.4907 21.7923L19.4907 21.7924ZM20.7391 27.7256C20.6945 27.8925 20.5875 28.0315 20.438 28.1179C20.3393 28.1746 20.2279 28.205 20.1154 28.205C19.8851 28.205 19.6705 28.081 19.5554 27.8818C19.3774 27.573 19.4832 27.1769 19.7913 26.9992C19.89 26.9422 20.0018 26.912 20.1141 26.912C20.3446 26.912 20.5595 27.0361 20.6746 27.2353C20.7611 27.3848 20.784 27.5589 20.7391 27.7256L20.7391 27.7256ZM25.2534 31.1719C24.8972 31.1719 24.6074 30.8815 24.6074 30.5244C24.6074 30.1682 24.8972 29.8786 25.2534 29.8786C25.6097 29.8786 25.8994 30.1682 25.8994 30.5244C25.8994 30.8815 25.6097 31.1719 25.2534 31.1719ZM26.1616 29.6467C25.9316 29.4089 25.6097 29.2602 25.2534 29.2602C24.9184 29.2602 24.6142 29.392 24.3878 29.6052L21.3159 27.942C21.3221 27.9228 21.3318 27.9052 21.3372 27.8858C21.4246 27.5595 21.3797 27.2186 21.2108 26.9262C21.0454 26.6397 20.7747 26.434 20.4642 26.3443V22.84C20.7747 22.75 21.0452 22.5441 21.2108 22.2576C21.3821 21.9608 21.4185 21.6227 21.3403 21.3143L24.3665 19.5594C24.5948 19.7846 24.9082 19.924 25.2536 19.924C25.5931 19.924 25.9011 19.7889 26.1285 19.5704L29.1781 21.2724C29.0853 21.5921 29.1167 21.9473 29.2957 22.2575C29.4682 22.5564 29.7551 22.7675 30.0821 22.8507V26.3334C29.5341 26.4721 29.1266 26.9678 29.1266 27.5584C29.1266 27.6795 29.1448 27.7962 29.1764 27.9071L26.1616 29.6467ZM30.3912 28.2052C30.0349 28.2052 29.7452 27.9151 29.7452 27.5585C29.7452 27.2021 30.0349 26.9124 30.3927 26.9124C30.5652 26.9124 30.7272 26.9796 30.8491 27.1017C30.9713 27.2239 31.0381 27.3862 31.0378 27.559C31.0378 27.9151 30.7477 28.2052 30.3911 28.2052L30.3912 28.2052Z" fill="#88B9B5"/>
<path d="M25.2537 21.356C23.4687 21.356 22.0166 22.8078 22.0166 24.5922C22.0166 26.3767 23.4687 27.8284 25.2537 27.8284C27.0378 27.8284 28.4895 26.3767 28.4895 24.5922C28.4892 22.8077 27.0378 21.356 25.2537 21.356ZM23.7727 24.2829H22.6554C22.6837 24.0449 22.7432 23.8165 22.8312 23.6023H23.8334C23.8032 23.8244 23.7822 24.0522 23.7727 24.2829H23.7727ZM24.4575 23.6022H26.049C26.0808 23.8128 26.1041 24.0392 26.1143 24.2827H24.3916C24.4023 24.0392 24.4256 23.8128 24.4574 23.6022H24.4575ZM22.6554 24.9016H23.7727C23.782 25.1316 23.803 25.3589 23.8331 25.5804H22.8305C22.743 25.3668 22.6836 25.1389 22.6554 24.9016H22.6554ZM24.392 24.9016H26.1147C26.1041 25.1446 26.081 25.3702 26.0495 25.5804H24.4575C24.4255 25.3702 24.4023 25.1446 24.392 24.9016ZM26.7331 24.9016H27.8507C27.8224 25.139 27.7631 25.3668 27.6753 25.5804H26.67C26.7013 25.3579 26.7232 25.1301 26.7331 24.9016H26.7331ZM26.7331 24.2829C26.7232 24.0535 26.7013 23.8254 26.6697 23.6023H27.6748C27.7626 23.8167 27.8224 24.045 27.8507 24.2829H26.7331ZM27.3136 22.9834H26.5501C26.4761 22.6874 26.3815 22.4131 26.2651 22.1784C26.6804 22.3533 27.0397 22.6331 27.3136 22.9834ZM25.9173 22.9834H24.5895C24.7717 22.3442 25.0412 21.9745 25.2538 21.9745C25.4665 21.9745 25.7355 22.3442 25.9173 22.9834ZM24.2291 22.1838C24.1148 22.4169 24.0222 22.6886 23.9498 22.9834H23.1927C23.4639 22.6369 23.8189 22.3589 24.2291 22.1838H24.2291ZM23.1915 26.1992H23.9494C24.0215 26.4947 24.1144 26.7671 24.2289 27.0005C23.8182 26.8251 23.4628 26.5466 23.1915 26.1992ZM24.5888 26.1992H25.9178C25.7356 26.8394 25.4663 27.2094 25.2535 27.2094C25.0408 27.2094 24.771 26.8396 24.5888 26.1992ZM26.2649 27.0058C26.3814 26.7705 26.4758 26.4956 26.5503 26.1991H27.3148C27.0407 26.5501 26.6808 26.8309 26.2649 27.0058H26.2649Z" fill="#88B9B5"/>
</g>
<path fill-rule="evenodd" clip-rule="evenodd" d="M8.25293 33.1057C8.25293 32.5534 8.70064 32.1057 9.25293 32.1057H41.2529C41.8052 32.1057 42.2529 32.5534 42.2529 33.1057V34.1057C42.2529 34.658 41.8052 35.1057 41.2529 35.1057H9.25293C8.70065 35.1057 8.25293 34.658 8.25293 34.1057V33.1057Z" fill="white"/>
</g>
<defs>
<filter id="filter0_d_1209_2607" x="6.25293" y="15.1057" width="38" height="24" filterUnits="userSpaceOnUse" color-interpolation-filters="sRGB">
<feFlood flood-opacity="0" result="BackgroundImageFix"/>
<feColorMatrix in="SourceAlpha" type="matrix" values="0 0 0 0 0 0 0 0 0 0 0 0 0 0 0 0 0 0 127 0" result="hardAlpha"/>
<feOffset dy="2"/>
<feGaussianBlur stdDeviation="1"/>
<feColorMatrix type="matrix" values="0 0 0 0 0.592157 0 0 0 0 0.760784 0 0 0 0 0.74902 0 0 0 1 0"/>
<feBlend mode="normal" in2="BackgroundImageFix" result="effect1_dropShadow_1209_2607"/>
<feBlend mode="normal" in="SourceGraphic" in2="effect1_dropShadow_1209_2607" result="shape"/>
</filter>
<linearGradient id="paint0_linear_1209_2607" x1="57.3273" y1="32.2798" x2="31.905" y2="-7.72358" gradientUnits="userSpaceOnUse">
<stop stop-color="#97C2BF"/>
<stop offset="1" stop-color="#D1EDEB"/>
</linearGradient>
</defs>
</svg>
