<svg width="50" height="51" viewBox="0 0 50 51" fill="none" xmlns="http://www.w3.org/2000/svg">
<circle cx="25.0947" cy="25.4861" r="24.5" fill="url(#paint0_linear_1201_2266)"/>
<g opacity="0.697033" filter="url(#filter0_f_1201_2266)">
<path fill-rule="evenodd" clip-rule="evenodd" d="M16.2744 15.7461C16.2744 15.1938 16.7221 14.7461 17.2744 14.7461H32.9144C33.4667 14.7461 33.9144 15.1938 33.9144 15.7461V39.2261C33.9144 39.7784 33.4667 40.2261 32.9144 40.2261H17.2744C16.7221 40.2261 16.2744 39.7784 16.2744 39.2261V15.7461Z" fill="#EDB441"/>
</g>
<path fill-rule="evenodd" clip-rule="evenodd" d="M16.2744 13.7461C16.2744 13.1938 16.7221 12.7461 17.2744 12.7461H32.9144C33.4667 12.7461 33.9144 13.1938 33.9144 13.7461V37.2261C33.9144 37.7784 33.4667 38.2261 32.9144 38.2261H17.2744C16.7221 38.2261 16.2744 37.7784 16.2744 37.2261V13.7461Z" fill="white"/>
<path opacity="0.7" d="M28.7764 25.0534C28.9168 25.0182 29.0219 24.8781 29.0219 24.7378V23.8261C29.0219 23.6858 28.9168 23.5454 28.7764 23.4754C28.7764 23.4754 28.4958 23.4053 28.2854 23.3351C28.2154 23.0896 28.1102 22.8792 28.0048 22.6688L28.2503 22.2129C28.3204 22.0726 28.2854 21.8974 28.1802 21.7922L27.5491 21.161C27.4439 21.0559 27.2685 21.0207 27.1284 21.091L26.6725 21.3365C26.4621 21.2313 26.2166 21.1261 26.0062 21.0558L25.8659 20.5648C25.8308 20.4245 25.6907 20.3193 25.5503 20.3193H24.6386C24.4983 20.3193 24.358 20.4245 24.323 20.5648L24.1827 21.0558C23.9723 21.1259 23.7268 21.2311 23.5165 21.3365L23.0606 21.091C22.9203 21.0209 22.745 21.0559 22.6398 21.161L22.0087 21.7922C21.9035 21.8974 21.8684 22.0728 21.9386 22.2129L22.1841 22.6688C22.0789 22.8792 21.9738 23.1247 21.9035 23.3351L21.4125 23.4754C21.2722 23.5105 21.167 23.6506 21.167 23.7909V24.7027C21.167 24.843 21.2722 24.9833 21.4125 25.0182L21.9035 25.1586C21.9736 25.4041 22.0788 25.6144 22.1841 25.8248L21.9386 26.2807C21.8686 26.421 21.9035 26.5963 22.0087 26.7015L22.6398 27.3326C22.745 27.4378 22.9205 27.4729 23.0606 27.4026L23.5165 27.1571C23.7268 27.2623 23.9372 27.3675 24.1827 27.4378L24.323 27.9288C24.3582 28.0691 24.4983 28.1743 24.6386 28.1743H25.5503C25.6907 28.1743 25.831 28.0691 25.8659 27.9288L26.0062 27.4378C26.2517 27.3677 26.4621 27.2625 26.6725 27.1571L27.1284 27.4026C27.2687 27.4727 27.409 27.4378 27.5491 27.3326L28.1802 26.7015C28.2854 26.5963 28.3206 26.4208 28.2503 26.2807L28.0048 25.86C28.11 25.6496 28.2152 25.4041 28.2854 25.1937L28.7764 25.0534ZM25.0943 25.3689C24.4981 25.3689 24.0073 24.8779 24.0073 24.2819C24.0073 23.6858 24.4983 23.1949 25.0943 23.1949C25.6905 23.1949 26.1813 23.686 26.1813 24.2819C26.1813 24.8779 25.6905 25.3689 25.0943 25.3689Z" fill="#EDB441"/>
<path opacity="0.7" d="M38.3611 20.8449C38.291 20.8449 37.9753 20.7398 37.73 20.6697H37.6948C37.5896 20.3541 37.4844 20.0386 37.309 19.7579L37.6597 19.1618C37.7298 19.0214 37.6948 18.8462 37.5896 18.741L36.7831 17.9344C36.6779 17.8292 36.5024 17.7941 36.3623 17.8644L35.7661 18.2151C35.4855 18.0398 35.1699 17.9344 34.8544 17.8292L34.6791 17.163C34.644 17.0227 34.5039 16.9175 34.3636 16.9175H33.2063C33.066 16.9175 32.9257 17.0227 32.8907 17.163L32.7151 17.8291C32.3995 17.9342 32.084 18.0394 31.8034 18.2149L31.2072 17.8642C31.0669 17.7941 30.8916 17.829 30.7864 17.9342L29.9798 18.7408C29.8747 18.846 29.8395 19.0214 29.9098 19.1616L30.2605 19.7577C30.0852 20.0384 29.9798 20.3539 29.8747 20.6695L29.2084 20.8799C29.0681 20.915 28.9629 21.0551 28.9629 21.1954V22.3527C28.9629 22.493 29.0681 22.6333 29.2084 22.6683L29.8747 22.8435C29.9798 23.1591 30.085 23.4746 30.2605 23.7553L29.9098 24.3514C29.8397 24.4918 29.8747 24.6321 29.9798 24.7722L30.7864 25.5788C30.8916 25.684 31.067 25.7191 31.2072 25.6488L31.8034 25.2981C32.084 25.4734 32.3995 25.5788 32.7151 25.684L32.8903 26.3502C32.9255 26.4905 33.0656 26.5957 33.2059 26.5957H34.3632C34.5035 26.5957 34.6438 26.4905 34.6787 26.3502L34.854 25.684C35.1696 25.6139 35.4851 25.4736 35.7657 25.2981L36.3619 25.6488C36.5022 25.7189 36.6775 25.684 36.7827 25.5788L37.6246 24.8075C37.6597 24.7724 37.6946 24.7375 37.7298 24.6672C37.7298 24.6321 37.7649 24.5972 37.7649 24.5269C37.7649 24.4568 37.7649 24.3866 37.7298 24.3517C37.6946 24.3165 37.5194 23.9658 37.4142 23.7555C37.5895 23.4748 37.6948 23.1593 37.8 22.8437L38.4663 22.6685C38.6066 22.6334 38.7118 22.4932 38.7118 22.3529V21.1956C38.6415 21.0202 38.5364 20.8799 38.3611 20.845L38.3611 20.8449ZM33.8023 23.5099C32.8554 23.5099 32.0488 22.7385 32.0488 21.7565C32.0488 20.7747 32.8203 20.003 33.8023 20.003C34.7492 20.003 35.5558 20.7745 35.5558 21.7565C35.5556 22.7385 34.7492 23.5099 33.8023 23.5099Z" fill="#EDB441"/>
<circle cx="25.5843" cy="34.7962" r="1.47" fill="#EDB441"/>
<defs>
<filter id="filter0_f_1201_2266" x="13.5561" y="12.0278" width="23.0762" height="30.9165" filterUnits="userSpaceOnUse" color-interpolation-filters="sRGB">
<feFlood flood-opacity="0" result="BackgroundImageFix"/>
<feBlend mode="normal" in="SourceGraphic" in2="BackgroundImageFix" result="shape"/>
<feGaussianBlur stdDeviation="1.35914" result="effect1_foregroundBlur_1201_2266"/>
</filter>
<linearGradient id="paint0_linear_1201_2266" x1="57.6931" y1="33.217" x2="32.127" y2="-7.01278" gradientUnits="userSpaceOnUse">
<stop offset="0.0353369" stop-color="#FFCD68"/>
<stop offset="1" stop-color="#FFF1D6"/>
</linearGradient>
</defs>
</svg>
