<svg width="51" height="51" viewBox="0 0 51 51" fill="none" xmlns="http://www.w3.org/2000/svg">
<g clip-path="url(#clip0_1206_2713)">
<path d="M25.0947 50.7964C38.9018 50.7964 50.0947 39.6035 50.0947 25.7964C50.0947 11.9893 38.9018 0.796387 25.0947 0.796387C11.2876 0.796387 0.0947266 11.9893 0.0947266 25.7964C0.0947266 39.6035 11.2876 50.7964 25.0947 50.7964Z" fill="url(#paint0_linear_1206_2713)"/>
<g filter="url(#filter0_f_1206_2713)">
<path fill-rule="evenodd" clip-rule="evenodd" d="M11.0947 17.7964C10.5424 17.7964 10.0947 18.2441 10.0947 18.7964V34.7964H9.09473C8.54245 34.7964 8.09473 35.2441 8.09473 35.7964V36.7964C8.09473 37.3487 8.54245 37.7964 9.09473 37.7964H11.0947H39.0947H41.0947C41.647 37.7964 42.0947 37.3487 42.0947 36.7964V35.7964C42.0947 35.2441 41.647 34.7964 41.0947 34.7964H40.0947V18.7964C40.0947 18.2441 39.647 17.7964 39.0947 17.7964H11.0947Z" fill="#F6B684"/>
</g>
<path fill-rule="evenodd" clip-rule="evenodd" d="M10.0947 16.7964C10.0947 16.2441 10.5424 15.7964 11.0947 15.7964H39.0947C39.647 15.7964 40.0947 16.2441 40.0947 16.7964V34.7964C40.0947 35.3487 39.647 35.7964 39.0947 35.7964H11.0947C10.5424 35.7964 10.0947 35.3487 10.0947 34.7964V16.7964Z" fill="white"/>
<path opacity="0.7" d="M36.5847 26.2741H35.2173V25.1114C35.2173 24.8493 35.0045 24.6363 34.7422 24.6363L32.0831 24.6365V23.8633H33.4499C33.712 23.8633 33.9249 23.6505 33.9249 23.3882V19.7043C33.9249 19.4422 33.7122 19.2293 33.4499 19.2293H29.766C29.5039 19.2293 29.2909 19.442 29.2909 19.7043V21.0713H25.8137V18.3005H27.1811C27.4432 18.3005 27.6561 18.0878 27.6561 17.8255L27.6559 14.1416C27.6559 13.8794 27.4432 13.6665 27.1809 13.6665H23.497C23.2349 13.6665 23.0219 13.8793 23.0219 14.1416V17.8255C23.0219 18.0876 23.2347 18.3005 23.497 18.3005H24.8636V21.0715H21.3866V19.7045C21.3866 19.4424 21.1738 19.2295 20.9115 19.2295L17.228 19.2293C16.9659 19.2293 16.7529 19.442 16.7529 19.7043V23.3884C16.7529 23.6505 16.9657 23.8635 17.228 23.8635H18.5948V24.6367H15.9353C15.6732 24.6367 15.4602 24.8495 15.4602 25.1118V26.2745H14.0932C13.8311 26.2745 13.6182 26.4872 13.6182 26.7495V30.4332C13.6182 30.6953 13.8309 30.9083 14.0932 30.9083H17.7771C18.0392 30.9083 18.2522 30.6955 18.2522 30.4332V26.7495C18.2522 26.4874 18.0394 26.2745 17.7771 26.2745H16.4103V25.5868H21.7293V26.2745H20.3623C20.1002 26.2745 19.8872 26.4872 19.8872 26.7495V30.4332C19.8872 30.6953 20.1 30.9083 20.3623 30.9083H24.0462C24.3083 30.9083 24.5212 30.6955 24.5212 30.4332V26.7495C24.5212 26.4874 24.3085 26.2745 24.0462 26.2745H22.6794V25.1118C22.6794 24.8497 22.4666 24.6367 22.2043 24.6367H19.5446V23.8635H20.9116C21.1737 23.8635 21.3866 23.6507 21.3866 23.3884V22.0214H29.2908V23.3884C29.2908 23.6505 29.5036 23.8635 29.7659 23.8635H31.1333V24.6367H28.4734C28.2113 24.6367 27.9983 24.8495 27.9983 25.1118V26.2745H26.6309C26.3688 26.2745 26.1559 26.4872 26.1559 26.7495V30.4332C26.1559 30.6953 26.3686 30.9083 26.6309 30.9083H30.315C30.5771 30.9083 30.7901 30.6955 30.7901 30.4332V26.7495C30.7901 26.4874 30.5773 26.2745 30.315 26.2745H28.9482V25.5868H34.2672V26.2745H32.9004C32.6383 26.2745 32.4253 26.4872 32.4253 26.7495V30.4332C32.4253 30.6953 32.6381 30.9083 32.9004 30.9083L36.5847 30.9081C36.8468 30.9081 37.0597 30.6953 37.0597 30.433V26.7493C37.0597 26.487 36.8468 26.2741 36.5847 26.2741ZM17.3018 29.9576H14.568V27.224H17.302L17.3018 29.9576ZM23.5711 29.9576H20.8371V27.224H23.5711V29.9576ZM29.8401 29.9578H27.1061V27.2242H29.8403L29.8401 29.9578ZM36.1094 29.9578H33.3752V27.2242H36.1094V29.9578Z" fill="#F78761"/>
<path fill-rule="evenodd" clip-rule="evenodd" d="M8.09473 33.7964C8.09473 33.2441 8.54245 32.7964 9.09473 32.7964H41.0947C41.647 32.7964 42.0947 33.2441 42.0947 33.7964V34.7964C42.0947 35.3487 41.647 35.7964 41.0947 35.7964H9.09473C8.54245 35.7964 8.09473 35.3487 8.09473 34.7964V33.7964Z" fill="white"/>
</g>
<defs>
<filter id="filter0_f_1206_2713" x="5.37645" y="15.0781" width="39.4366" height="25.4366" filterUnits="userSpaceOnUse" color-interpolation-filters="sRGB">
<feFlood flood-opacity="0" result="BackgroundImageFix"/>
<feBlend mode="normal" in="SourceGraphic" in2="BackgroundImageFix" result="shape"/>
<feGaussianBlur stdDeviation="1.35914" result="effect1_foregroundBlur_1206_2713"/>
</filter>
<linearGradient id="paint0_linear_1206_2713" x1="57.169" y1="32.9705" x2="31.7468" y2="-7.03291" gradientUnits="userSpaceOnUse">
<stop stop-color="#EEBB97"/>
<stop offset="1" stop-color="#FDE8DA"/>
</linearGradient>
<clipPath id="clip0_1206_2713">
<rect width="50" height="50" fill="white" transform="translate(0.0947266 0.796387)"/>
</clipPath>
</defs>
</svg>
