<svg width="51" height="51" viewBox="0 0 51 51" fill="none" xmlns="http://www.w3.org/2000/svg">
<circle cx="25.4697" cy="25.533" r="25" fill="url(#paint0_linear_1061_11643)"/>
<g filter="url(#filter0_f_1061_11643)">
<path fill-rule="evenodd" clip-rule="evenodd" d="M10.4697 18.533C10.4697 17.9807 10.9174 17.533 11.4697 17.533H39.4697C40.022 17.533 40.4697 17.9807 40.4697 18.533V36.533C40.4697 37.0852 40.022 37.533 39.4697 37.533H11.4697C10.9174 37.533 10.4697 37.0852 10.4697 36.533V18.533Z" fill="#F6B684"/>
</g>
<path fill-rule="evenodd" clip-rule="evenodd" d="M10.4697 16.533C10.4697 15.9807 10.9174 15.533 11.4697 15.533H39.4697C40.022 15.533 40.4697 15.9807 40.4697 16.533V34.533C40.4697 35.0852 40.022 35.533 39.4697 35.533H11.4697C10.9174 35.533 10.4697 35.0852 10.4697 34.533V16.533Z" fill="white"/>
<path fill-rule="evenodd" clip-rule="evenodd" d="M33.7568 23.9818C33.2814 22.8813 32.6419 21.9336 31.8383 21.138C31.0348 20.3425 30.0772 19.7095 28.9654 19.2389C27.8536 18.7683 26.6887 18.533 25.4698 18.533C24.2509 18.533 23.0858 18.7683 21.9742 19.2389C20.8626 19.7097 19.905 20.3425 19.1015 21.138C18.2977 21.9336 17.6584 22.8813 17.1829 23.9818C16.7075 25.0823 16.4697 26.2356 16.4697 27.442C16.4697 29.1786 16.9418 30.7797 17.886 32.2447C18.0132 32.4369 18.194 32.533 18.4284 32.533H32.5111C32.7454 32.533 32.9262 32.4369 33.0534 32.2447C33.9977 30.7731 34.4697 29.1722 34.4697 27.442C34.4697 26.2356 34.2321 25.0823 33.7568 23.9818ZM24.5606 20.1786C24.8119 19.93 25.1148 19.8057 25.4697 19.8057C25.8247 19.8057 26.1276 19.93 26.3788 20.1786C26.6299 20.4271 26.7556 20.7271 26.7556 21.0784C26.7556 21.4298 26.6299 21.7296 26.3788 21.9782C26.1276 22.2268 25.8247 22.3512 25.4697 22.3512C25.1148 22.3512 24.8118 22.2268 24.5606 21.9782C24.3096 21.7296 24.1839 21.4298 24.1839 21.0784C24.1839 20.7271 24.3095 20.4272 24.5606 20.1786ZM19.0411 28.715C19.3961 28.715 19.6991 28.5904 19.9502 28.3419C20.2013 28.0933 20.3269 27.7934 20.3269 27.442C20.3269 27.0907 20.2013 26.7909 19.9502 26.5422C19.6993 26.2936 19.3961 26.1693 19.0411 26.1693C18.6863 26.1693 18.3833 26.2936 18.1321 26.5422C17.881 26.7909 17.7555 27.0907 17.7555 27.442C17.7555 27.7934 17.881 28.0935 18.1321 28.3419C18.3833 28.5904 18.6863 28.715 19.0411 28.715ZM21.8789 23.8874C21.6276 24.1359 21.3247 24.2603 20.9697 24.2603C20.6148 24.2603 20.3118 24.1358 20.0606 23.8874C19.8096 23.6389 19.6839 23.3389 19.6839 22.9876C19.6839 22.6362 19.8094 22.3364 20.0606 22.0878C20.3119 21.8391 20.6148 21.7148 20.9697 21.7148C21.3247 21.7148 21.6277 21.8392 21.8789 22.0878C22.1299 22.3364 22.2555 22.6362 22.2555 22.9876C22.2555 23.3388 22.1299 23.6387 21.8789 23.8874ZM26.5544 27.7701L27.569 23.9719C27.6092 23.7996 27.5842 23.6389 27.4936 23.4896C27.4033 23.3405 27.2745 23.2428 27.1069 23.1964C26.9394 23.15 26.7788 23.1716 26.6247 23.2609C26.4707 23.3504 26.3703 23.4814 26.3235 23.6538L25.3089 27.452C24.9071 27.4853 24.5489 27.6293 24.2342 27.8846C23.9195 28.1397 23.7085 28.4661 23.6014 28.8637C23.4675 29.3743 23.5345 29.858 23.8022 30.3155C24.07 30.773 24.4619 31.0679 24.9774 31.2005C25.4932 31.3331 25.9819 31.2667 26.444 31.0015C26.9061 30.7365 27.2042 30.3487 27.3381 29.8383C27.4452 29.4405 27.425 29.0527 27.2779 28.6749C27.1305 28.2969 26.8895 27.9954 26.5544 27.7701ZM29.0607 23.8874C28.8095 23.6389 28.6839 23.3389 28.6839 22.9876C28.6839 22.6362 28.8095 22.3364 29.0607 22.0878C29.3119 21.8392 29.6148 21.7148 29.9697 21.7148C30.3247 21.7148 30.6276 21.8392 30.8787 22.0878C31.1299 22.3364 31.2556 22.6362 31.2556 22.9876C31.2556 23.3388 31.1299 23.6388 30.8787 23.8874C30.6276 24.1359 30.3247 24.2603 29.9697 24.2603C29.6148 24.2603 29.3119 24.1359 29.0607 23.8874ZM31.8983 28.715C32.2532 28.715 32.5561 28.5904 32.8073 28.3419C33.0584 28.0933 33.1839 27.7934 33.1839 27.442C33.1839 27.0907 33.0585 26.7909 32.8073 26.5422C32.5561 26.2936 32.2532 26.1693 31.8983 26.1693C31.5434 26.1693 31.2404 26.2936 30.9893 26.5422C30.7381 26.7909 30.6126 27.0907 30.6126 27.442C30.6126 27.7934 30.7381 28.0935 30.9893 28.3419C31.2404 28.5904 31.5434 28.715 31.8983 28.715Z" fill="#E7B08B"/>
<defs>
<filter id="filter0_f_1061_11643" x="7.75144" y="14.8147" width="35.4366" height="25.4366" filterUnits="userSpaceOnUse" color-interpolation-filters="sRGB">
<feFlood flood-opacity="0" result="BackgroundImageFix"/>
<feBlend mode="normal" in="SourceGraphic" in2="BackgroundImageFix" result="shape"/>
<feGaussianBlur stdDeviation="1.35914" result="effect1_foregroundBlur_1061_11643"/>
</filter>
<linearGradient id="paint0_linear_1061_11643" x1="57.5441" y1="32.707" x2="32.1218" y2="-7.29634" gradientUnits="userSpaceOnUse">
<stop stop-color="#EEBB97"/>
<stop offset="1" stop-color="#FDE8DA"/>
</linearGradient>
</defs>
</svg>
