<svg width="141" height="41" viewBox="0 0 141 41" xmlns="http://www.w3.org/2000/svg">
    <g fill-rule="nonzero" fill="none">
        <path fill="#17313B" d="M35.41 0h6.522v40.068h-6.523zM65.27 28.333c0 6.193-5.07 6.756-6.76 6.756-3.944 0-4.508-3.66-4.508-5.63V13.977h-6.48v15.2c0 3.66 1.128 7.038 3.381 9.008C52.875 40.155 55.411 41 58.51 41c2.253 0 5.07-.563 6.76-2.252V41h6.48V13.977h-6.48v14.356zM84.452 3.727h-6.768v9.959h-5.002v6.26h5.002V41h6.768V19.945h5.003v-6.26h-5.003zM109.323 32.072c-1.393 1.103-3.342 1.93-5.291 1.93-4.456 0-7.52-3.31-7.52-7.72 0-4.413 3.064-7.446 7.52-7.446 1.949 0 3.898.552 5.29 1.93l.836.827 4.456-4.136-1.114-.827a14.359 14.359 0 0 0-9.468-3.585c-7.798 0-13.646 5.791-13.646 13.512 0 7.72 5.848 13.511 13.646 13.511 3.62 0 6.961-1.379 9.468-3.584l1.114-.828-4.456-4.412-.835.828zM137.91 15.237c-1.958-1.975-3.915-2.822-6.99-2.822-2.236 0-4.472.565-6.15 2.258V0h-6.43v40.068h6.43V25.113c0-6.208 4.194-6.772 5.87-6.772 3.915 0 3.635 3.668 3.635 5.643v15.802h6.43v-15.52c0-3.668-.84-7.054-2.796-9.029z"/>
        <circle fill="#EF4335" cx="104.364" cy="26.091" r="4.659"/>
        <path d="M27.317 30.31c-2.23 2.23-5.575 3.624-9.198 3.624-6.969 0-11.987-5.576-11.987-13.104S11.15 7.726 18.397 7.726c3.345 0 6.69 1.394 9.2 3.903l.835.836 4.182-4.182-.837-.836c-3.623-3.625-8.362-5.577-13.38-5.577C7.805 1.592 0 9.956 0 20.83s7.805 19.238 18.119 19.238c5.017 0 10.035-1.952 13.38-5.576l.836-.837-4.181-4.182-.837.837z" fill="#17313B"/>
    </g>
</svg>
